<svg fill="none" height="24" viewBox="0 0 24 24" width="24" xmlns="http://www.w3.org/2000/svg"><path d="m20.713 8.12808-.246.566c-.0384.09217-.1033.1709-.1864.22627-.0831.05538-.1807.08493-.2806.08493s-.1975-.02955-.2806-.08493c-.0831-.05537-.148-.1341-.1864-.22627l-.246-.566c-.4325-1.00128-1.2246-1.80408-2.22-2.25l-.759-.339c-.0921-.04236-.1701-.11023-.2248-.19557-.0546-.08534-.0837-.18457-.0837-.28593s.0291-.20059.0837-.28593c.0547-.08534.1327-.15321.2248-.19557l.717-.319c1.0204-.45862 1.8261-1.29112 2.251-2.326l.253-.61c.0372-.09465.102-.1759.186-.23317.084-.05728.1833-.08791.285-.08791s.201.03063.285.08791c.084.05727.1488.13852.186.23317l.253.61c.4247 1.0347 1.23 1.86717 2.25 2.326l.718.32c.0918.04248.1695.11034.224.19558.0545.08523.0834.18427.0834.28542s-.0289.2002-.0834.28543-.1322.15309-.224.19557l-.76.338c-.9952.44637-1.7869 1.24953-2.219 2.251zm-10.713-5.128h4v2h-4c-1.5913 0-3.11742.63214-4.24264 1.75736s-1.75736 2.65134-1.75736 4.24266c0 3.61 2.462 5.966 8 8.48v-2.48h2c1.5913 0 3.1174-.6322 4.2426-1.7574 1.1253-1.1252 1.7574-2.6513 1.7574-4.2426h2c0 2.1217-.8429 4.1565-2.3431 5.6568-1.5003 1.5003-3.5352 2.3432-5.6569 2.3432v3.5c-5-2-12-5-12-11.5 0-2.12175.84285-4.15658 2.34315-5.65687 1.50029-1.50029 3.53512-2.34315 5.65685-2.34315z" fill="#000"/></svg>