<svg fill="none" height="24" viewBox="0 0 24 24" width="24" xmlns="http://www.w3.org/2000/svg"><path d="m20 5c.2652 0 .5196.10536.7071.29289.1875.18754.2929.44189.2929.70711s-.1054.51957-.2929.70711c-.1875.18753-.4419.29289-.7071.29289h-1l-.003.071-.933 13.071c-.0359.5046-.2617.9768-.6319 1.3216-.3702.3447-.8572.5364-1.3631.5364h-8.139c-.50586 0-.99293-.1917-1.36312-.5364-.37018-.3448-.59596-.817-.63188-1.3216l-.933-13.07-.002-.072h-1c-.26522 0-.51957-.10536-.70711-.29289-.18753-.18754-.29289-.44189-.29289-.70711s.10536-.51957.29289-.70711c.18754-.18753.44189-.29289.70711-.29289zm-3.003 2h-9.994l.928 13h8.138zm-2.997-5c.2652 0 .5196.10536.7071.29289.1875.18754.2929.44189.2929.70711s-.1054.51957-.2929.70711c-.1875.18753-.4419.29289-.7071.29289h-4c-.26522 0-.51957-.10536-.70711-.29289-.18753-.18754-.29289-.44189-.29289-.70711s.10536-.51957.29289-.70711c.18754-.18753.44189-.29289.70711-.29289z" fill="#000"/></svg>