<svg fill="none" height="24" viewBox="0 0 24 24" width="24" xmlns="http://www.w3.org/2000/svg"><path d="m18.0005 22c-.3952.007-.7877-.067-1.1531-.2175-.3655-.1505-.6963-.3743-.9719-.6575-.2833-.2757-.5071-.6064-.6576-.9719s-.2245-.7579-.2174-1.1531c0-.117.008-.238.025-.363s.042-.237.075-.337l-7.05004-4.1c-.283.25-.6.446-.95.588-.35.141-.717.212-1.1.212-.39519.007-.78763-.067-1.15311-.2175s-.69625-.3743-.97189-.6575c-.28327-.2757-.50706-.6064-.65755-.9719-.1505-.3655-.2245-.7579-.21745-1.1531 0-.833.292-1.542.875-2.12503.27564-.28327.60641-.50706.97189-.65755s.75792-.2245 1.15311-.21745c.383 0 .75.07 1.1.213.35.141.667.337.95.587l7.05004-4.1c-.0356-.11006-.0607-.22323-.075-.338-.0164-.11998-.0247-.24091-.025-.362 0-.833.292-1.542.875-2.125.2756-.28327.6064-.50706.9719-.65755.3654-.15049.7579-.2245 1.1531-.21745.833 0 1.542.292 2.125.875s.875 1.292.875 2.125-.292 1.542-.875 2.125c-.2757.28328-.6064.50706-.9719.65756-.3655.15049-.758.22449-1.1531.21744-.383 0-.75-.07-1.1-.213-.3478-.14015-.6691-.33867-.95-.587l-7.05004 4.10003c.033.1.058.212.075.337.03218.2409.03218.485 0 .726-.01437.1144-.03948.2272-.075.337l7.05004 4.1c.283-.25.6-.446.95-.588.35-.141.717-.212 1.1-.212.833 0 1.542.292 2.125.875s.875 1.292.875 2.125-.292 1.542-.875 2.125c-.2757.2832-.6064.507-.9719.6575s-.758.2245-1.1531.2175zm0-16.00003c.1319.00313.2631-.02072.3856-.07007.1224-.04934.2335-.12316.3264-.21693.0942-.09283.1683-.204.2179-.32664.0495-.12264.0734-.25413.0701-.38636.0033-.13222-.0206-.26372-.0701-.38636-.0496-.12263-.1237-.23381-.2179-.32664-.0929-.09386-.2039-.16774-.3264-.2171-.1224-.04935-.2537-.07314-.3856-.0699-.132-.00324-.2633.02055-.3857.0699-.1224.04936-.2335.12324-.3263.2171-.0943.09283-.1684.20401-.218.32664-.0495.12264-.0733.25414-.07.38636 0 .283.096.52.288.713.0928.09386.2039.16774.3263.2171s.2537.07314.3857.0699zm-12.00004 7.00003c.283 0 .52-.096.713-.287.09399-.093.16794-.2042.2173-.3268s.07308-.2541.0697-.3862c.00338-.1322-.02034-.2636-.0697-.3862-.04936-.1227-.12331-.2339-.2173-.3268-.09292-.0941-.20413-.168-.32676-.2174s-.25409-.0731-.38624-.0696c-.13215-.0035-.2636.0202-.38624.0696-.12263.0494-.23384.1233-.32676.2174-.09399.0929-.16794.2041-.2173.3268-.04936.1226-.07308.254-.0697.3862 0 .283.096.52.287.713.192.191.43.287.713.287zm12.00004 7c.283 0 .52-.096.712-.288.094-.0928.1681-.2038.2176-.3262.0495-.1225.0735-.2538.0704-.3858.0031-.1321-.0209-.2634-.0704-.3858-.0495-.1225-.1236-.2335-.2176-.3262-.0928-.0941-.2038-.1681-.3263-.2177-.1224-.0495-.2537-.0734-.3857-.0703-.1321-.0031-.2634.0208-.3858.0703-.1225.0496-.2335.1236-.3262.2177-.0941.0927-.1681.2037-.2177.3262-.0495.1224-.0735.2537-.0703.3858 0 .283.096.52.288.712.0926.0942.2036.1683.3261.2179.1224.0495.2538.0734.3859.0701z" fill="#000"/></svg>