<svg viewBox="0 0 700 600" xmlns="http://www.w3.org/2000/svg" xmlns:xlink="http://www.w3.org/1999/xlink"><linearGradient id="a" gradientUnits="userSpaceOnUse" x1="574.706" x2="585.279" y1="581.961" y2="429.226"><stop offset=".02" stop-color="#064"/><stop offset=".15" stop-color="#00704a"/><stop offset=".48" stop-color="#00875a"/><stop offset="1" stop-color="#57d9a3"/></linearGradient><linearGradient id="b" gradientUnits="userSpaceOnUse" x1="574.777" x2="651.928" y1="582.31" y2="450.07"><stop offset=".22" stop-color="#00875a"/><stop offset="1" stop-color="#57d9a3"/></linearGradient><linearGradient id="c" gradientUnits="userSpaceOnUse" x1="392.36" x2="432.99" y1="412.71" y2="412.71"><stop offset="0" stop-color="#fff" stop-opacity="0"/><stop offset=".01" stop-color="#fefefe" stop-opacity=".02"/><stop offset=".09" stop-color="#eceef1" stop-opacity=".25"/><stop offset=".19" stop-color="#dde0e5" stop-opacity=".45"/><stop offset=".29" stop-color="#d0d4db" stop-opacity=".62"/><stop offset=".39" stop-color="#c5cbd3" stop-opacity=".76"/><stop offset=".5" stop-color="#bdc3cd" stop-opacity=".87"/><stop offset=".63" stop-color="#b7bec8" stop-opacity=".94"/><stop offset=".78" stop-color="#b4bbc6" stop-opacity=".99"/><stop offset="1" stop-color="#b3bac5"/></linearGradient><linearGradient id="d" gradientUnits="userSpaceOnUse" x1="388.7" x2="383.99" y1="367.2" y2="371.07"><stop offset="0" stop-color="#9c7761"/><stop offset=".07" stop-color="#9d7862"/><stop offset=".6" stop-color="#ae8a74"/><stop offset="1" stop-color="#b5917c"/></linearGradient><linearGradient id="e" gradientUnits="userSpaceOnUse" x1="413.93" x2="382.29" y1="377.17" y2="377.17"><stop offset="0" stop-color="#0049b0"/><stop offset="1" stop-color="#4c9aff"/></linearGradient><linearGradient id="f" gradientUnits="userSpaceOnUse" x1="432.84" x2="403.97" y1="384.34" y2="384.34"><stop offset="0" stop-color="#0052cc"/><stop offset="1" stop-color="#b2d4ff"/></linearGradient><radialGradient id="g" cx="399.06" cy="386.19" gradientUnits="userSpaceOnUse" r="7.08"><stop offset="0" stop-color="#fff" stop-opacity=".6"/><stop offset=".21" stop-color="#fff" stop-opacity=".39"/><stop offset=".41" stop-color="#fff" stop-opacity=".22"/><stop offset=".59" stop-color="#fff" stop-opacity=".1"/><stop offset=".74" stop-color="#fff" stop-opacity=".03"/><stop offset=".84" stop-color="#fff" stop-opacity="0"/></radialGradient><linearGradient id="h" gradientUnits="userSpaceOnUse" x1="568.58" x2="568.58" y1="600" y2="505.02"><stop offset="0" stop-color="#abf5d1"/><stop offset=".02" stop-color="#a8f4cf"/><stop offset=".33" stop-color="#7ce5b7"/><stop offset=".57" stop-color="#61dca9"/><stop offset=".71" stop-color="#57d9a3"/></linearGradient><linearGradient id="i" gradientUnits="userSpaceOnUse" x1="101.97" x2="384.12" y1="460.92" y2="178.77"><stop offset="0" stop-color="#deebff"/><stop offset=".74" stop-color="#fff"/></linearGradient><path d="m298.12 492.52h76.55v107.48h-76.55z" fill="#dfe1e5"/><path d="m604.22 515.09a16.84 16.84 0 0 0 -2.17 10.91v.23a16.88 16.88 0 0 1 -4.54 14 16.87 16.87 0 0 0 -4.66 10.57v.19a16.84 16.84 0 0 1 -7.05 12.63l-1.1.78a16.88 16.88 0 0 0 -5.9 7.53l-4 10.22-2.61-10.68a16.92 16.92 0 0 0 -4.8-8.28l-1-.92a16.9 16.9 0 0 1 -5.24-13.48v-.19a16.83 16.83 0 0 0 -3.15-11.05 16.87 16.87 0 0 1 -2.58-14.55l.06-.23a16.83 16.83 0 0 0 -.65-11.11 16.88 16.88 0 0 1 1-15.06 16.88 16.88 0 0 0 2.17-10.92v-.24a16.88 16.88 0 0 1 4.53-14 16.82 16.82 0 0 0 4.66-10.56v-.19a16.87 16.87 0 0 1 7.1-12.69l1.1-.78a16.94 16.94 0 0 0 5.9-7.53l4.05-10.23 2.6 10.69a16.79 16.79 0 0 0 4.81 8.27l1 .93a16.87 16.87 0 0 1 5.25 13.5v.19a17 17 0 0 0 3.16 11.11 16.87 16.87 0 0 1 2.56 14.53l-.06.22a16.91 16.91 0 0 0 .64 11.12 16.88 16.88 0 0 1 -1.08 15.07z" fill="url(#a)"/><path d="m630.91 535.09a16.86 16.86 0 0 0 -6.79 8.83l-.08.23a16.86 16.86 0 0 1 -10.28 10.57 16.91 16.91 0 0 0 -8.86 7.41l-.09.17a16.87 16.87 0 0 1 -11.92 8.19l-1.33.22a16.79 16.79 0 0 0 -8.63 4.13l-8.16 7.37 2.4-10.73a16.91 16.91 0 0 0 -.65-9.55l-.47-1.26a16.9 16.9 0 0 1 1.27-14.41l.1-.17a16.88 16.88 0 0 0 2.09-11.36 16.84 16.84 0 0 1 4.14-14.15l.16-.18a16.81 16.81 0 0 0 4.34-10.25 16.9 16.9 0 0 1 7.61-13 16.91 16.91 0 0 0 6.79-8.83l.07-.23a16.86 16.86 0 0 1 10.28-10.57 16.86 16.86 0 0 0 8.86-7.41l.1-.17a16.85 16.85 0 0 1 11.91-8.19l1.34-.22a16.86 16.86 0 0 0 8.63-4.13l8.16-7.37-2.41 10.73a16.9 16.9 0 0 0 .65 9.55l.47 1.26a16.9 16.9 0 0 1 -1.27 14.41l-.1.17a16.82 16.82 0 0 0 -2.08 11.36 16.88 16.88 0 0 1 -4.16 14.1l-.16.18a16.87 16.87 0 0 0 -4.32 10.21 16.87 16.87 0 0 1 -7.61 13.09z" fill="url(#b)"/><path d="m395.14 411.84h76.55v188.16h-76.55z" fill="#ffab00"/><path d="m489.05 300.15h76.55v299.85h-76.55z" fill="#0065ff"/><ellipse cx="412.67" cy="412.71" fill="url(#c)" opacity=".42" rx="20.32" ry="3.56"/><path d="m383.18 370.15.16-3.14a1.06 1.06 0 0 1 .13-.46l.82-1.42a1 1 0 0 1 1.1-.49l2.17.45a1 1 0 0 1 .79.76l.85 3.48a1.07 1.07 0 0 1 -.06.66l-.5 1.12.64 1.4-1.72 1.07-3.1-1.2-1-1.51a1 1 0 0 1 -.28-.72z" fill="url(#d)"/><path d="m414.24 342.84c-4.58 6.89 3.77 23.85 14.93 26.19 3.57.75 9.3.39 11.17-2.89 1.18-2.09.78-5.29-.41-7.44-1.39-2.49-3.4-2.74-4-5.36-.31-1.5.19-2.14-.46-3.57s-1.38-1.49-2.5-2.83c-1.66-2-1.16-3.12-2.29-4.77-1.91-2.81-5.84-3.22-6.65-3.31-3.62-.38-7.92 1.14-9.79 3.98z" fill="#172b4d"/><path d="m413 367.69q-2.55 3.27-5.14 6.92l-5.43 8.05q-2.37-2.36-4.76-4.86l-6.7-6.86-3.36 2.64 5.89 8 6 7.28a3.61 3.61 0 0 0 4.36.86q1.85-.93 3.81-2.07a68.85 68.85 0 0 0 6.58-4.39s7.14-19 4.36-19c-3.74 0-5.61 3.43-5.61 3.43z" fill="url(#e)"/><path d="m413.49 376.06c.74-2.72 2.48-3.86 4-7.91a23.2 23.2 0 0 0 1.08-3.89l10.84-.58a5.53 5.53 0 0 0 1.87 1.94c1.81 1.1 3.38.56 5.7 1.09a10.53 10.53 0 0 1 4.35 2.18l-1.89 32.33h-26.63c2.8-8.49 2.38-14.24 1.39-18-.56-2.09-1.49-4.33-.71-7.16z" fill="#0052cc"/><path d="m416.42 392.75c-.25.67 1.89 2.35-2.26.55a3.38 3.38 0 0 1 -2-1.4c-.65-1.11.19-2-.55-2.93-.4-.51-.86-.53-1.11-1.19-.18-.45-.19-1 0-1.16s.6.49 1.65 1.36 1.2.67 2 1.43l1.18 1.22a5.79 5.79 0 0 1 .51.53c.24.33.79 1.05.58 1.59z" fill="#b5917c"/><path d="m435.85 368.57c-2.45 1.9-1.42 7.57-.38 16.85l.8 8c-6.76-1.08-13.27-1-20-2.12a12 12 0 0 0 -.89 3.72c7.85 1.93 15 4.53 22.45 5.87a4.74 4.74 0 0 0 5.52-4 97.67 97.67 0 0 0 .88-9.23c.06-16-2.07-18.15-2.88-18.81a4.84 4.84 0 0 0 -3.27-1.2 4.47 4.47 0 0 0 -2.23.92z" fill="url(#f)"/><path d="m419.73 368.47h5.33v-13.41h-10.54c-.81.76-4.09 4-3.86 8.6.06 1.17.18 3.54 2 4.93s4.57 1.33 7.07-.12z" fill="#172b4d"/><path d="m413.65 390.93a8.55 8.55 0 0 1 -2.25-.68c-.59-.27-1-.56-1.42-.68a.81.81 0 0 0 -.65 0 .93.93 0 0 0 -.46.62c-.09.47.32.63.45 1.34s-.11.75.1 1 .51.23.75.58 0 .55.21.84c.31.52 1.36.5 1.74.5a8 8 0 0 1 3.88 1.08 4 4 0 0 0 0-1.57 4.55 4.55 0 0 0 -2-2.74z" fill="#b5917c"/><path d="m405.006 443.298-8.403.981-1.29-11.045 8.403-.981zm-18.691-10.757-7.157-2.643 3.475-9.409 7.157 2.643z" fill="#4c9aff"/><path d="m419.51 364.77a13.25 13.25 0 0 0 9.61-.32 10.44 10.44 0 0 1 -1.2-2.71 9.82 9.82 0 0 1 -.33-3.55l-8.38 1.12z" fill="#9c7761"/><path d="m415.3 346.41a28.7 28.7 0 0 0 -.65 2.91 27.39 27.39 0 0 0 -.38 4l-.49 1c-.73 1.35-1.53 2.19-1.27 2.48l1.22.45c.38.25.43 3.26 1.22 4.42 1.59 2.37 9.75 2.23 12-1.69a5.11 5.11 0 0 0 .6-3.09 3.47 3.47 0 0 1 -.44-.13 3.63 3.63 0 0 1 -1.87-1.5 6.94 6.94 0 0 0 -1.13-2.79 8.58 8.58 0 0 0 -5.39-3.32 8 8 0 0 1 -1.65-.36 2.7 2.7 0 0 1 -.48-.21 2.84 2.84 0 0 1 -1.29-2.17zm-8.72 42.78c.71-.59 3.52.38 3.52.38l-.12 1.57.7 3.14s-3.16-1-3.85-1.73a2.34 2.34 0 0 1 -.28-.82l-.6-.47c-.31-.32-.54-1.19-.25-1.52.12-.12.67 0 .67 0a1.61 1.61 0 0 1 .21-.55z" fill="#b5917c"/><path d="m385.69 394.57h36.31a0 0 0 0 1 0 0 1 1 0 0 1 -1 1h-34.2a1 1 0 0 1 -1-1 0 0 0 0 1 0 0z" fill="#253858"/><path d="m421.97 394.18v.38h-10.2v-.38z" fill="#b3bac5"/><g fill="#253858"><path d="m412.17 395.61h-24.84a1 1 0 0 1 -1-1v-16.83a1 1 0 0 1 1-1h24.97a1 1 0 0 1 1 1v16.71a1.13 1.13 0 0 1 -1.13 1.12z"/><path d="m412.14 395.61h-24.84a1 1 0 0 1 -1-1v-16.83a1 1 0 0 1 1-1h24.92a1 1 0 0 1 1 1v16.71a1.12 1.12 0 0 1 -1.08 1.12z"/><path d="m412.05 395.61h-24.85a1 1 0 0 1 -1-1v-16.83a1 1 0 0 1 1-1h24.93a1 1 0 0 1 1 1v16.71a1.12 1.12 0 0 1 -1.08 1.12z"/><path d="m412 395.61h-24.82a1 1 0 0 1 -1-1v-16.83a1 1 0 0 1 1-1h24.93a1 1 0 0 1 1 1v16.71a1.12 1.12 0 0 1 -1.11 1.12z"/><path d="m412 395.61h-24.83a1 1 0 0 1 -1-1v-16.83a1 1 0 0 1 1-1h24.92a1 1 0 0 1 1 1v16.71a1.12 1.12 0 0 1 -1.09 1.12z"/><path d="m412 395.61h-24.86a1 1 0 0 1 -1-1v-16.83a1 1 0 0 1 1-1h24.96a1 1 0 0 1 1 1v16.71a1.12 1.12 0 0 1 -1.1 1.12z"/><path d="m412 395.61h-24.88a1 1 0 0 1 -1-1v-16.83a1 1 0 0 1 1-1h24.93a1 1 0 0 1 1 1v16.71a1.12 1.12 0 0 1 -1.05 1.12z"/><path d="m412 395.61h-24.9a1 1 0 0 1 -1-1v-16.83a1 1 0 0 1 1-1h24.93a1 1 0 0 1 1 1v16.71a1.12 1.12 0 0 1 -1.03 1.12z"/><path d="m411.92 395.61h-24.85a1 1 0 0 1 -1-1v-16.83a1 1 0 0 1 1-1h24.93a1 1 0 0 1 1 1v16.71a1.12 1.12 0 0 1 -1.08 1.12z"/><path d="m411.9 395.61h-24.84a1 1 0 0 1 -1-1v-16.83a1 1 0 0 1 1-1h24.94a1 1 0 0 1 1 1v16.71a1.12 1.12 0 0 1 -1.1 1.12z"/><path d="m411.89 395.61h-24.89a1 1 0 0 1 -1-1v-16.83a1 1 0 0 1 1-1h25a1 1 0 0 1 1 1v16.71a1.12 1.12 0 0 1 -1.11 1.12z"/><path d="m411.87 395.61h-24.87a1 1 0 0 1 -1-1v-16.83a1 1 0 0 1 1-1h25a1 1 0 0 1 1 1v16.71a1.12 1.12 0 0 1 -1.13 1.12z"/><path d="m411.85 395.61h-24.85a1 1 0 0 1 -1-1v-16.83a1 1 0 0 1 1-1h25a1 1 0 0 1 1 1v16.71a1.12 1.12 0 0 1 -1.15 1.12z"/><path d="m411.84 395.61h-24.84a1 1 0 0 1 -1-1v-16.83a1 1 0 0 1 1-1h25a1 1 0 0 1 1 1v16.71a1.12 1.12 0 0 1 -1.16 1.12z"/><path d="m411.82 395.61h-24.82a1 1 0 0 1 -1-1v-16.83a1 1 0 0 1 1-1h24.93a1 1 0 0 1 1 1v16.71a1.12 1.12 0 0 1 -1.11 1.12z"/><path d="m411.81 395.61h-24.81a1 1 0 0 1 -1-1v-16.83a1 1 0 0 1 1-1h24.93a1 1 0 0 1 1 1v16.71a1.12 1.12 0 0 1 -1.12 1.12z"/><path d="m411.74 395.61h-24.84a1 1 0 0 1 -1-1v-16.83a1 1 0 0 1 1-1h24.93a1 1 0 0 1 1 1v16.71a1.12 1.12 0 0 1 -1.09 1.12z"/><path d="m411.65 395.61h-24.85a1 1 0 0 1 -1-1v-16.83a1 1 0 0 1 1-1h24.93a1 1 0 0 1 1 1v16.71a1.12 1.12 0 0 1 -1.08 1.12z"/><path d="m411.58 395.61h-24.84a1 1 0 0 1 -1-1v-16.83a1 1 0 0 1 1-1h24.96a1 1 0 0 1 1 1v16.71a1.12 1.12 0 0 1 -1.12 1.12z"/><path d="m411.55 395.61h-24.85a1 1 0 0 1 -1-1v-16.83a1 1 0 0 1 1-1h24.93a1 1 0 0 1 1 1v16.71a1.12 1.12 0 0 1 -1.08 1.12z"/></g><circle cx="399.06" cy="386.19" fill="url(#g)" opacity=".65" r="7.08"/><g fill="#dfe1e5"><path d="m399.14 388.59-2.43-2.42 2.43-2.43z"/><path d="m399.14 383.74 2.43 2.43-2.43 2.42z"/></g><path d="m437.22 408.22a12.32 12.32 0 0 1 -13.69 4.07l-27.77-9.48-1.27 7.4-2.19 8.31-2.5 8.7q-3.15-.68-6.48-1.53l-2.9-.79 4-20.17c.56-2.85 1.13-5.77 3.39-8.64a17.54 17.54 0 0 1 9.05-5.75l42.54 10.88v.59a10.36 10.36 0 0 1 -2.18 6.41z" fill="none"/><path d="m429.78 367.93h5.32v-13.41l-11-2a6.51 6.51 0 0 1 .5 3.24c-.39 3.41-3.58 4.22-3.94 7.41a5.6 5.6 0 0 0 2 4.93c1.82 1.33 4.62 1.28 7.12-.17z" fill="#172b4d"/><path d="m425.05 350.35h-11.46v-5.69h11.46z" fill="#172b4d"/><path d="m390.66 371.64.31-2.59-.74-2a5.46 5.46 0 0 1 -.32-1.74l-.08-2.84a.63.63 0 0 0 -.53-.67.64.64 0 0 0 -.72.52l-1.17 4.54v2.79l.15 4z" fill="#b5917c"/><path d="m437.16 600h262.84v-95a101.14 101.14 0 0 0 -38 6.56c-30.21 11.65-31.13 30.57-57.3 38.85-25.06 7.94-32.21-6.73-57.8 3.6-18.9 7.63-18.9 17.21-37.62 21.56-17.65 4.11-24.94-2.72-40.93 1.7-15.15 4.23-25.29 14.97-31.19 22.73z" fill="url(#h)"/><g fill="#cea28b"><path d="m147 405a24.91 24.91 0 0 1 -2.81-2.25 26.82 26.82 0 0 1 -5.06-6.34 1.93 1.93 0 0 1 .36-2.74 1.72 1.72 0 0 1 1.75.28 3.22 3.22 0 0 1 1-.1c1.88.13 3 2 3.16 2.31l1.4 1.07.18-1.56a1.91 1.91 0 0 1 .78-1.31 1.81 1.81 0 0 1 1.23-.29l-.15 2.36 1.26 5.83z"/><path d="m203.93 436.23-26.16-15-27.84-20.23-3.33 4a285.33 285.33 0 0 0 53.34 43.31z"/></g><path d="m196.92 451.41s1.6-4.42-8.11-9.18l5.73-11.38s7.12 3.93 8.36 4a3.89 3.89 0 0 0 2.12-.53v1.78l-4.69 13.13z" fill="#57d9a3"/><rect fill="url(#i)" height="101.7" rx="4.51" transform="matrix(.970926 -.239381 .239381 .970926 -85.5 54.91)" width="229.16" x="68.79" y="328.67"/><circle cx="265.3" cy="384" fill="#dfe1e5" r="13.82"/><path d="m83.62 373.06 185.07-45.62m-179.24 69.31 126.72-31.23" fill="none" stroke="#b2d4ff" stroke-miterlimit="10" stroke-width="6.01"/><rect fill="#57d9a3" height="27.63" rx="4.51" transform="matrix(.970926 -.239381 .239381 .970926 -97.87 38.59)" width="27.63" x="96.16" y="408.47"/><path d="m265.52 583.45a17.76 17.76 0 0 1 4.32 2.12 17 17 0 0 1 3.57 3.24l-.87 2.12a28.72 28.72 0 0 1 -6.55 9l-8.59.06a2.05 2.05 0 0 1 0-.7c.36-2.21 4.26-3 4.49-3.08a10.94 10.94 0 0 0 1-4.68 10.8 10.8 0 0 0 -1.05-4.6z" fill="#344563"/><path d="m227 471c-5.73-4.79-19-2.55-23 4.27-4.19 7.11 1.85 18.95 9.05 32.85 2 3.84 2.23 8.47 15.92 30.3l14.93 24.08c6.89 11.19 12.36 20.83 15.73 26.79 2.46-1.15 6.59-3.66 9.05-4.81-3.59-8.37-6.22-15.27-7.94-20-3.63-9.93-5.13-15.29-9-23.77-2.57-5.59-5-10-6.61-12.75q-2.31-6.79-4.55-13.79-4.36-13.62-8.09-26.75a22.28 22.28 0 0 0 -1.06-8.93c-.53-1.37-1.84-5.28-4.43-7.49z" fill="#172b4d"/><g fill="#344563"><path d="m212.77 589.48.9 3.85a45.84 45.84 0 0 1 .71 5.17 1.4 1.4 0 0 1 -1.38 1.5l-17.74-.08a3.21 3.21 0 0 1 .58-2.35c.72-.84 1.78-.78 3-1a13.68 13.68 0 0 0 6.59-3.46 10.71 10.71 0 0 0 2.47-3.81z"/><path d="m216.27 463.79c-.56-.15-6.66-1.66-11.56 1.7-4.34 3-6.38 8.82-6.09 30.69.15 10.89.83 22.69 2.73 40.37 1.44 13.31 2.1 16.43 3.17 28.25 1 11 1.47 20 1.73 26l11.56.52c1.94-11 2.14-19.83 3-26.95.87-7.33-.44-12.23-1.06-17.69-.74-6.44-.74-12.94-.93-13.57-.42-1.4 7.09-26.71 9.34-34.44 3.78-13 .67-17.77-.27-22-1.17-5.24-5.23-11.21-11.62-12.88z"/></g><path d="m232 479.88a30.53 30.53 0 0 1 -20 6.31 29.87 29.87 0 0 1 -15-5.11l-.28-6.91c-.11-4.17-.09-7.27-.07-10.79.05-7.83.25-6.25.21-11 0 0 0-2 .46-9.84a12.21 12.21 0 0 1 1.52-5.08l.18-.27c.42-.57 2.34-2.93 9.52-3.3a38.19 38.19 0 0 1 19.3 4.6 70.72 70.72 0 0 0 -1.22 11.56 46.72 46.72 0 0 0 1.2 13.68c.66 2.53 1 2.86 2 6.49a82.25 82.25 0 0 1 2.18 9.66z" fill="#79f2c0"/><g fill="#cea28b"><path d="m197.87 422.62a2.9 2.9 0 0 0 .7.63 8.34 8.34 0 0 0 .89.59l.06 1.89a30.83 30.83 0 0 0 .42 3.5 25.08 25.08 0 0 0 3.64.66 18.6 18.6 0 0 0 6.64-.26 12 12 0 0 0 4.23-1.68c3-2.08 5.59-7.1 3.61-11.88-2.05-4.95-8.62-7.07-12.69-5.3a8.3 8.3 0 0 0 -4.28 3.94c-.48 1.1-.22 1.23-1 3.11a22.7 22.7 0 0 1 -.82 1.75c-.95 1.75-1.7 2.43-1.4 3.05z"/><path d="m215 424.82a10.51 10.51 0 0 0 -1.42 4.73 10.65 10.65 0 0 0 1 5.15l-5 3.42q-3.66 2.58-7 5.13l2.94-7.52a24.74 24.74 0 0 0 -.1-2.65 23.78 23.78 0 0 0 -.5-3.22zm14.9-42.62 1.84-7.11a26.47 26.47 0 0 0 -.39-4.15c-.18-1.05-.4-1.9-1.09-2.28a1.73 1.73 0 0 0 -.78-.19 1.12 1.12 0 0 0 -.27-1.12 1.07 1.07 0 0 0 -1.12-.25 1 1 0 0 0 -.62.93 1.09 1.09 0 0 0 -.77 0c-1 .34-1.37 2.43-1 5.2-.81-1.28-1.87-1.93-2.57-1.67a1 1 0 0 0 -.49.4l1.73 3.32a7.82 7.82 0 0 0 .33 2.34 8.24 8.24 0 0 0 2.06 3.42z"/><path d="m215 443.41 6.72-29.4q2-17.08 4-34.18c1.72.08 3.1-.37 4.82-.3a290.74 290.74 0 0 1 .32 33.44 284.49 284.49 0 0 1 -4.35 35.66z"/></g><path d="m209.06 420.77s1.27-2 2.53-1.78a1.66 1.66 0 0 1 .4 2.41 2.74 2.74 0 0 0 0 3.73 16.26 16.26 0 0 1 1.68 3.72l2.29-2a9.3 9.3 0 0 0 3.09-6.22c.25-3.35-.48-8-5.62-10.51s-10.65 1.66-11 2.15a1.41 1.41 0 0 1 -2.17.37c-1-.84-1.94-.08-1.64.77s1.61 4.09 4.65 3.92a5.09 5.09 0 0 1 4.15 2.56c.32.78 1.64.88 1.64.88z" fill="#253858"/><path d="m215.44 434.27s1.24.65 3-5.82a68.24 68.24 0 0 1 13 6.05s-4.7 12.51-4.74 15.55-13.74-4.55-13.74-4.55z" fill="#79f2c0"/></svg>