<svg height="64" viewBox="0 0 64 64" width="64" xmlns="http://www.w3.org/2000/svg"><g fill="none" fill-rule="evenodd"><path d="m53.7989899 17.2010101v-12.04159455" stroke="#979797" stroke-linecap="round" stroke-width="2" transform="matrix(.70710678 .70710678 -.70710678 .70710678 23.470563 -35.260931)"/><path d="m13.8098298 54.2581014c3.3137085 0 7-4.9248678 7-11 0-6.0751323 1.3137085-13-2-13s-11 6.9248677-11 13c0 6.0751322 2.6862915 11 6 11z" fill="#ed9111" transform="matrix(.70710678 .70710678 -.70710678 .70710678 34.109869 2.167694)"/><path d="m21.5880044 62.0362759c3.3137085 0 7-4.9248677 7-11 0-6.0751322 1.3137085-13-2-13s-11 6.9248678-11 13c0 6.0751323 2.6862915 11 6 11z" fill="#ed9111" transform="matrix(-.70710678 -.70710678 -.70710678 .70710678 73.306878 30.364703)"/><path d="m28.6014148 18.8496192 5 33.6837184h-10z" fill="#fcc24c" transform="matrix(.70710678 .70710678 .70710678 -.70710678 -16.860526 40.70491)"/><path d="m39.1066017 17.1813206c0-2.7586784 2.2289849-4.9950291 5.0021863-4.9950291h1.9956275c2.7626311 0 5.0021862 2.2338221 5.0021862 4.9950291v9.0049709h-12z" fill="#e74c4c" transform="matrix(.70710678 .70710678 -.70710678 .70710678 26.778175 -26.275649)"/></g></svg>