<svg viewBox="0 0 72 72" xmlns="http://www.w3.org/2000/svg"><circle cx="39.4882" cy="39.4552" fill="#ea5a47" r="29.85"/><circle cx="39.4882" cy="39.4552" fill="#fff" r="23.85"/><circle cx="39.4882" cy="39.4552" fill="#ea5a47" r="15.85"/><circle cx="39.4882" cy="39.4552" fill="#fff" r="10.9"/><circle cx="39.4882" cy="39.4552" fill="#ea5a47" r="5.9"/><g style="fill:none;stroke:#000;stroke-linecap:round;stroke-linejoin:round;stroke-miterlimit:10;stroke-width:2"><path d="m11.4659 11.4989h-8.9528"/><path d="m11.4662 11.4989.0001-8.9529"/><path d="m15.5067 15.5473h-8.9529"/><path d="m15.5086 15.5454v-8.9529"/><path d="m39.4865 39.4644-32.0087-31.9456"/><path d="m21.9689 16.3467c4.8593-3.674 10.9579-5.8915 17.5193-5.8915 16.0163 0 29 12.9837 29 29s-12.9837 29-29 29-29-12.9837-29-29c0-6.5467 2.1693-12.5867 5.8283-17.4404"/><path d="m26.2567 20.6399c3.7421-2.6364 8.306-4.1847 13.2315-4.1847 12.7025 0 23 10.2975 23 23s-10.2975 23-23 23-23-10.2975-23-23c0-4.8704 1.5138-9.3872 4.0966-13.1056"/><path d="m32.04 26.4321c2.1945-1.2578 4.7374-1.9769 7.4482-1.9769 8.2843 0 15 6.7157 15 15s-6.7157 15-15 15-15-6.7157-15-15c0-2.6162.7305-5.1268 1.9079-7.268"/><path d="m40.0779 34.4744c2.4674.3067 4.3769 2.4111 4.3769 4.9616 0 2.7614-2.2386 5-5 5-2.4824 0-4.5422-1.809-4.9332-4.1806"/><path d="m35.7775 30.1663c1.1474-.4587 2.3996-.7111 3.7107-.7111 5.5228 0 10 4.4772 10 10s-4.4772 10-10 10-10-4.4771-10-10c0-1.2548.252-2.4731.6858-3.5895"/></g></svg>