<svg fill="none" height="40" viewBox="0 0 40 40" width="40" xmlns="http://www.w3.org/2000/svg"><path d="m29.7938 2.59003 6.955 7.25v27.56997h-25.9812v.09h26.07v-27.56872z" fill="#909090"/><path d="m29.7075 2.5h-19.0288v34.91h26.07v-27.56875z" fill="#f4f4f4"/><path d="m10.4875 4.375h-7.9875v8.5337h25.125v-8.5337z" fill="#7a7b7c"/><path d="m27.7584 12.7638h-25.09629v-8.54001h25.09629z" fill="#2075dd"/><path d="m26.8948 25.3188s3.985-.7225 3.985.6387c0 1.3613-2.4687.8075-3.985-.6387zm-2.9462.1037c-.6333.1395-1.2503.3444-1.8413.6113l.5-1.125c.5-1.125 1.0188-2.6588 1.0188-2.6588.5951 1.0052 1.2894 1.9482 2.0725 2.815-.5895.0878-1.1738.208-1.75.36zm-1.5775-8.125c0-1.1862.3837-1.51.6825-1.51.2987 0 .635.1438.6462 1.1738-.0975 1.0356-.3143 2.0566-.6462 3.0425-.4563-.8272-.6917-1.7579-.6838-2.7025zm-5.8113 13.145c-1.2225-.7312 2.5638-2.9825 3.25-3.055-.0037.0013-1.97 3.82-3.25 3.055zm15.4838-4.3237c-.0125-.125-.125-1.5088-2.5875-1.45-1.0265-.018-2.0525.0543-3.0663.2162-.9826-.9891-1.8285-2.1052-2.515-3.3187.4323-1.2509.6942-2.5543.7788-3.875-.0363-1.5-.395-2.36-1.545-2.3475s-1.3175 1.0187-1.1663 2.5162c.148 1.0064.4275 1.9889.8313 2.9225 0 0-.5313 1.6538-1.2338 3.2988s-1.1825 2.5075-1.1825 2.5075c-1.2218.3972-2.3718.9881-3.4062 1.75-1.03.9587-1.4488 1.695-.9063 2.4312.4675.635 2.1038.7788 3.5663-1.1375.7757-.9907 1.4856-2.0313 2.125-3.115 0 0 2.23-.6112 2.9237-.7787.6938-.1675 1.5325-.3 1.5325-.3s2.0363 2.0487 4 1.9762c1.9638-.0725 1.8688-1.1737 1.8563-1.2937" fill="#2075dd"/><path d="m29.6113 2.59628v7.34125h7.0413z" fill="#909090"/><path d="m29.707 2.5v7.34125h7.0413z" fill="#f4f4f4"/><path d="m8.03516 11h-1.22657l.00782-.8438h1.21875c.33073 0 .60807-.0729.83203-.2187.22396-.14844.39323-.36068.50781-.63672.11458-.27864.17188-.61198.17188-1v-.29297c0-.29948-.03256-.5638-.09766-.79297-.06511-.22916-.16146-.42187-.28906-.57812-.125-.15625-.27995-.27474-.46485-.35547-.18489-.08073-.39713-.12109-.63672-.12109h-1.27343v-.84766h1.27343c.38021 0 .72657.0638 1.03907.19141.3151.1276.58724.31119.8164.55078.23174.23698.40884.52083.53124.85156.125.33073.1875.70052.1875 1.10937v.28516c0 .40625-.0625.77604-.1875 1.10938-.1224.33073-.2995.61454-.53124.85154-.22916.237-.5026.4193-.82031.5469s-.67057.1914-1.05859.1914zm-.625-5.6875v5.6875h-1.07422v-5.6875zm4.87504 3.61719v-.08203c0-.3099.0442-.59506.1328-.85547.0885-.26302.2174-.49089.3867-.6836.1693-.1927.3763-.34244.6211-.44921.2448-.10938.5234-.16407.8359-.16407.3177 0 .599.05469.8438.16407.2474.10677.4557.25651.625.44921.1692.19271.2981.42058.3867.6836.0885.26041.1328.54557.1328.85547v.08203c0 .30729-.0443.59245-.1328.85547-.0886.26044-.2175.48824-.3867.68364-.1693.1927-.3763.3424-.6211.4492-.2448.1067-.5248.1601-.8399.1601-.3125 0-.5924-.0534-.8398-.1601-.2474-.1068-.4557-.2565-.625-.4492-.1693-.1954-.2982-.4232-.3867-.68364-.0886-.26302-.1328-.54818-.1328-.85547zm1.0312-.08203v.08203c0 .18489.0182.35807.0547.51953s.0924.30338.168.42578c.0755.1224.1731.2188.2929.2891.1224.0677.2683.1015.4375.1015.1667 0 .3099-.0338.4297-.1015.1198-.0703.2175-.1667.293-.2891.0781-.1224.1354-.26432.1719-.42578.0364-.16146.0547-.33464.0547-.51953v-.08203c0-.1823-.0183-.35287-.0547-.51172-.0365-.16146-.0938-.30339-.1719-.42578-.0755-.125-.1745-.22266-.2969-.29297-.1198-.07292-.2643-.10938-.4336-.10938-.1666 0-.3099.03646-.4297.10938-.1198.07031-.2174.16797-.2929.29297-.0756.12239-.1315.26432-.168.42578-.0365.15885-.0547.32942-.0547.51172zm6.418 1.41794c.1458 0 .276-.0286.3906-.0859s.2057-.138.2734-.2422c.0704-.10417.1081-.22526.1133-.36328h.9727c-.0052.28646-.086.54298-.2422.76958-.1563.2265-.3646.4062-.625.539-.2578.1302-.5469.1953-.8672.1953-.3255 0-.6094-.0547-.8516-.164-.2422-.1094-.444-.2618-.6054-.4571-.1589-.1953-.2787-.4218-.3594-.67966-.0781-.25781-.1172-.53385-.1172-.82812v-.125c0-.29427.0391-.57031.1172-.82813.0807-.25781.2005-.48437.3594-.67968.1614-.19532.3632-.34766.6054-.45703.2422-.10938.5248-.16407.8477-.16407.3411 0 .6406.06641.8984.19922.2604.13281.4636.32031.6094.5625.1484.24219.2253.52735.2305.85547h-.9727c-.0052-.15104-.039-.28646-.1015-.40625s-.1511-.21615-.2657-.28906c-.1146-.07292-.2539-.10938-.4179-.10938-.1745 0-.3204.03646-.4375.10938-.1146.07291-.2045.17317-.2696.30078-.0625.125-.1067.26562-.1328.42187-.0234.15365-.0351.31511-.0351.48438v.125c0 .17187.0117.33594.0351.49219.0261.15625.0703.29687.1328.42187.0651.1224.155.22002.2696.29292.1171.073.2656.1094.4453.1094z" fill="#fff"/></svg>