<svg fill="none" height="40" viewBox="0 0 40 40" width="40" xmlns="http://www.w3.org/2000/svg"><path d="m29.7938 2.59003 6.955 7.25v27.56997h-25.9812v.09h26.07v-27.56872z" fill="#909090"/><path d="m29.7075 2.5h-19.0288v34.91h26.07v-27.56875z" fill="#f4f4f4"/><path d="m10.4875 4.375h-7.9875v8.5337h25.125v-8.5337z" fill="#7a7b7c"/><path d="m27.7584 12.7638h-25.09629v-8.54001h25.09629z" fill="#d97000"/><path d="m26.8948 25.3188s3.985-.7225 3.985.6387c0 1.3613-2.4687.8075-3.985-.6387zm-2.9462.1037c-.6333.1395-1.2503.3444-1.8413.6113l.5-1.125c.5-1.125 1.0188-2.6588 1.0188-2.6588.5951 1.0052 1.2894 1.9482 2.0725 2.815-.5895.0878-1.1738.208-1.75.36zm-1.5775-8.125c0-1.1862.3837-1.51.6825-1.51.2987 0 .635.1438.6462 1.1738-.0975 1.0356-.3143 2.0566-.6462 3.0425-.4563-.8272-.6917-1.7579-.6838-2.7025zm-5.8113 13.145c-1.2225-.7312 2.5638-2.9825 3.25-3.055-.0037.0013-1.97 3.82-3.25 3.055zm15.4838-4.3237c-.0125-.125-.125-1.5088-2.5875-1.45-1.0265-.018-2.0525.0543-3.0663.2162-.9826-.9891-1.8285-2.1052-2.515-3.3187.4323-1.2509.6942-2.5543.7788-3.875-.0363-1.5-.395-2.36-1.545-2.3475s-1.3175 1.0187-1.1663 2.5162c.148 1.0064.4275 1.9889.8313 2.9225 0 0-.5313 1.6538-1.2338 3.2988s-1.1825 2.5075-1.1825 2.5075c-1.2218.3972-2.3718.9881-3.4062 1.75-1.03.9587-1.4488 1.695-.9063 2.4312.4675.635 2.1038.7788 3.5663-1.1375.7757-.9907 1.4856-2.0313 2.125-3.115 0 0 2.23-.6112 2.9237-.7787.6938-.1675 1.5325-.3 1.5325-.3s2.0363 2.0487 4 1.9762c1.9638-.0725 1.8688-1.1737 1.8563-1.2937" fill="#d97000"/><path d="m29.6113 2.59628v7.34125h7.0413z" fill="#909090"/><path d="m29.707 2.5v7.34125h7.0413z" fill="#f4f4f4"/><path d="m8.15625 5.3125h.92969l1.55466 4.28125 1.5508-4.28125h.9336l-2.1133 5.6875h-.7461zm-.46875 0h.91016l.16406 3.93359v1.75391h-1.07422zm4.9922 0h.9141v5.6875h-1.0743v-1.75391zm4.707 5.6875h-1.2265l.0078-.8438h1.2187c.3307 0 .6081-.0729.8321-.2187.2239-.14844.3932-.36068.5078-.63672.1145-.27864.1718-.61198.1718-1v-.29297c0-.29948-.0325-.5638-.0976-.79297-.0651-.22916-.1615-.42187-.2891-.57812-.125-.15625-.2799-.27474-.4648-.35547s-.3972-.12109-.6367-.12109h-1.2735v-.84766h1.2735c.3802 0 .7265.0638 1.039.19141.3151.1276.5873.31119.8164.55078.2318.23698.4089.52083.5313.85156.125.33073.1875.70052.1875 1.10937v.28516c0 .40625-.0625.77604-.1875 1.10938-.1224.33073-.2995.61454-.5313.85154-.2291.237-.5026.4193-.8203.5469s-.6706.1914-1.0586.1914zm-.625-5.6875v5.6875h-1.0742v-5.6875z" fill="#fff"/></svg>